<svg width="148" height="17" viewBox="0 0 148 17" fill="none" xmlns="http://www.w3.org/2000/svg">
<path d="M12.5357 0.857142H2.89286C1.29576 0.857142 0 2.1529 0 3.75V13.3929C0 14.99 1.29576 16.2857 2.89286 16.2857H8.23661V10.3092H6.22768V7.97879H8.23661V6.26116C8.23661 4.27232 9.46205 3.1875 11.24 3.1875C12.0837 3.1875 12.817 3.24777 13.0279 3.2779V5.35714L11.8025 5.36719C10.8281 5.36719 10.6473 5.8192 10.6473 6.49219V7.97879H12.9475L12.6462 10.3092H10.6473V16.2857H12.5357C14.1328 16.2857 15.4286 14.99 15.4286 13.3929V3.75C15.4286 2.1529 14.1328 0.857142 12.5357 0.857142ZM46.1959 3.66964C45.6133 3.92076 44.9805 4.10156 44.3276 4.17188C45.0006 3.77009 45.5129 3.13728 45.754 2.38393C45.1312 2.75558 44.4281 3.02679 43.6948 3.16741C43.1022 2.5346 42.2584 2.14286 41.3243 2.14286C39.5263 2.14286 38.0798 3.59933 38.0798 5.38728C38.0798 5.63839 38.11 5.88951 38.1602 6.13058C35.4682 5.98995 33.0676 4.70424 31.4705 2.73549C31.1892 3.21763 31.0285 3.77009 31.0285 4.37277C31.0285 5.49777 31.601 6.49219 32.4749 7.07478C31.9426 7.05469 31.4403 6.90402 31.0084 6.66295C31.0084 6.67299 31.0084 6.69308 31.0084 6.70312C31.0084 8.28013 32.1234 9.58594 33.61 9.88728C33.3388 9.95759 33.0475 9.99777 32.7562 9.99777C32.5452 9.99777 32.3444 9.97768 32.1435 9.94754C32.5553 11.2333 33.7506 12.1674 35.1769 12.1975C34.062 13.0714 32.6658 13.5837 31.149 13.5837C30.8778 13.5837 30.6267 13.5737 30.3656 13.5435C31.8019 14.4676 33.5095 15 35.3477 15C41.3142 15 44.5787 10.058 44.5787 5.76897C44.5787 5.62835 44.5787 5.48772 44.5687 5.3471C45.2015 4.88504 45.754 4.3125 46.1959 3.66964ZM76.8101 7.08984C76.7398 6.80859 76.564 6.5625 76.3882 6.45703C76.3179 6.42188 75.9312 6.35156 75.5093 6.35156C74.8062 6.31641 74.7007 6.31641 74.4898 6.17578C74.1382 5.96484 74.0327 5.75391 74.0327 5.12109C74.0327 3.96094 73.5405 2.90625 72.5913 1.92188C71.9234 1.21875 71.1499 0.761719 70.3062 0.515625C70.0952 0.445312 69.6382 0.410156 68.0562 0.410156C65.6304 0.375 65.103 0.410156 64.2593 0.761719C62.7124 1.35938 61.6226 2.66016 61.2359 4.27734C61.1655 4.59375 61.1304 5.08594 61.1304 7.93359C61.0952 11.5195 61.1304 12.0469 61.3413 12.75C61.9038 14.4727 63.4507 15.7734 65.0327 16.0547C65.5249 16.1602 71.9585 16.1602 72.6265 16.0898C73.7515 15.9141 74.6655 15.457 75.4741 14.6133C76.107 13.9805 76.4937 13.3125 76.7398 12.4336C76.9155 11.8008 76.8804 7.40625 76.8101 7.08984ZM65.4898 4.875C65.771 4.59375 65.8413 4.55859 67.564 4.55859C69.1109 4.55859 69.146 4.55859 69.3921 4.69922C69.7085 4.83984 69.8491 5.08594 69.8491 5.47266C69.8491 5.78906 69.7085 6.03516 69.4273 6.21094C69.2515 6.31641 69.146 6.31641 67.6343 6.35156C66.7202 6.35156 65.982 6.31641 65.8765 6.28125C65.2788 6.14062 65.0679 5.29688 65.4898 4.875ZM72.2398 11.8711L71.7124 11.9766L68.9702 12.0117C66.5796 12.0117 65.9116 11.9766 65.8062 11.9414C65.5249 11.8359 65.314 11.5195 65.2788 11.2383C65.2437 10.9922 65.3491 10.6406 65.5601 10.4648C65.8062 10.2188 65.9116 10.2188 68.9702 10.2188C72.1343 10.2188 72.0991 10.2188 72.4155 10.5C72.8374 10.8867 72.732 11.5898 72.2398 11.8711ZM105.805 8.74219C105.805 8.26004 105.754 7.88839 105.684 7.51674H98.7331V10.048H102.912C102.741 11.1228 101.646 13.2221 98.7331 13.2221C96.222 13.2221 94.1728 11.1429 94.1728 8.57143C94.1728 6 96.222 3.92076 98.7331 3.92076C100.169 3.92076 101.124 4.53348 101.666 5.0558L103.665 3.13728C102.379 1.93192 100.722 1.2087 98.7331 1.2087C94.665 1.2087 91.3704 4.50335 91.3704 8.57143C91.3704 12.6395 94.665 15.9342 98.7331 15.9342C102.982 15.9342 105.805 12.9509 105.805 8.74219ZM114.513 7.51674H112.414V5.41741H110.305V7.51674H108.205V9.62612H110.305V11.7254H112.414V9.62612H114.513V7.51674ZM147.011 6.70312C146.709 7.0346 146.368 7.32589 146.006 7.57701C144.329 8.71205 142.641 9.85714 141.004 11.0424C140.16 11.6652 139.116 12.4286 138.021 12.4286H138.011H138.001C136.906 12.4286 135.861 11.6652 135.017 11.0424C133.38 9.8471 131.693 8.71205 130.025 7.57701C129.654 7.32589 129.312 7.0346 129.011 6.70312V14.6786C129.011 15.5625 129.734 16.2857 130.618 16.2857H145.404C146.288 16.2857 147.011 15.5625 147.011 14.6786V6.70312ZM147.011 3.75C147.011 2.86607 146.278 2.14286 145.404 2.14286H130.618C129.543 2.14286 129.011 2.98661 129.011 3.97098C129.011 4.88504 130.025 6.02009 130.738 6.50223C132.295 7.58705 133.872 8.67187 135.429 9.76674C136.082 10.2188 137.187 11.1429 138.001 11.1429H138.011H138.021C138.834 11.1429 139.939 10.2188 140.592 9.76674C142.149 8.67187 143.726 7.58705 145.293 6.50223C146.177 5.88951 147.011 4.875 147.011 3.75Z" fill="#828282"/>
</svg>
