<svg width="50" height="48" viewBox="0 0 50 48" fill="none" xmlns="http://www.w3.org/2000/svg">
<path d="M10.3219 42.2785C10.4143 42.1921 10.5154 42.1307 10.6251 42.0943C10.7407 42.058 10.8677 42.0398 11.0063 42.0398C11.4337 42.0398 11.6474 42.1944 11.6474 42.5037V46.6789C11.6474 46.8108 11.5983 46.8972 11.5002 46.9381C11.402 46.9791 11.2576 46.9995 11.067 46.9995C10.8764 46.9995 10.732 46.9791 10.6338 46.9381C10.5356 46.8972 10.4865 46.8108 10.4865 46.6789V43.4451L7.02979 46.7403C6.93161 46.8312 6.83053 46.8972 6.72657 46.9381C6.62261 46.9791 6.49555 46.9995 6.34538 46.9995C6.17788 46.9995 6.03638 46.9791 5.92087 46.9381C5.81113 46.8972 5.71005 46.8312 5.61764 46.7403L2.15225 43.4451V46.6789C2.15225 46.8108 2.10315 46.8972 2.00497 46.9381C1.90678 46.9791 1.76239 46.9995 1.57179 46.9995C1.38697 46.9995 1.24547 46.9791 1.14728 46.9381C1.04909 46.8972 1 46.8108 1 46.6789V42.5037C1 42.1944 1.21081 42.0398 1.63244 42.0398C1.91544 42.0398 2.14358 42.1194 2.31685 42.2785L6.30206 46.0649L10.3219 42.2785Z" fill="white"/>
<path d="M14.9503 46.9722C13.2407 46.9722 12.3859 46.5493 12.3859 45.7033V43.2951C12.3859 42.4491 13.2407 42.0261 14.9503 42.0261H17.4714C19.181 42.0261 20.0358 42.4491 20.0358 43.2951V45.7033C20.0358 46.5493 19.181 46.9722 17.4714 46.9722H14.9503ZM17.4368 46.2354C17.945 46.2354 18.3147 46.1831 18.5457 46.0785C18.7767 45.9739 18.8922 45.8488 18.8922 45.7033V43.2951C18.8922 43.145 18.7767 43.0199 18.5457 42.9198C18.3147 42.8152 17.945 42.7629 17.4368 42.7629H14.985C14.4767 42.7629 14.1071 42.8152 13.8761 42.9198C13.645 43.0199 13.5295 43.145 13.5295 43.2951V45.7033C13.5295 45.8488 13.645 45.9739 13.8761 46.0785C14.1071 46.1831 14.4767 46.2354 14.985 46.2354H17.4368Z" fill="white"/>
<path d="M20.7721 42.3399C20.7721 42.1307 20.9078 42.0261 21.1792 42.0261H26.0915C26.4842 42.0261 26.8365 42.0534 27.1484 42.108C27.4661 42.158 27.7346 42.2308 27.9541 42.3263C28.1736 42.4218 28.3411 42.5378 28.4566 42.6742C28.5779 42.8107 28.6385 42.963 28.6385 43.1313V44.1205C28.6385 44.2888 28.5779 44.4412 28.4566 44.5776C28.3411 44.7141 28.1736 44.8301 27.9541 44.9256C27.7346 45.0211 27.4661 45.0961 27.1484 45.1507C26.8365 45.2007 26.4842 45.2257 26.0915 45.2257H21.9243V46.6789C21.9243 46.8108 21.8752 46.8972 21.777 46.9381C21.6788 46.9791 21.5345 46.9995 21.3439 46.9995C21.159 46.9995 21.0175 46.9791 20.9193 46.9381C20.8212 46.8972 20.7721 46.8108 20.7721 46.6789V42.3399ZM21.9243 42.7629V44.4889H25.9875C26.282 44.4889 26.5246 44.4776 26.7152 44.4548C26.9116 44.4321 27.0675 44.4025 27.1831 44.3661C27.2986 44.3252 27.3794 44.2797 27.4256 44.2297C27.4718 44.1751 27.4949 44.116 27.4949 44.0523V43.1995C27.4949 43.1404 27.4718 43.0836 27.4256 43.029C27.3794 42.9744 27.2986 42.9289 27.1831 42.8925C27.0675 42.8516 26.9116 42.8198 26.7152 42.797C26.5246 42.7743 26.282 42.7629 25.9875 42.7629H21.9243Z" fill="white"/>
<path d="M37.1769 42.3399C37.1769 42.1307 37.3126 42.0261 37.584 42.0261H42.4529C42.8457 42.0261 43.198 42.0534 43.5099 42.108C43.8275 42.158 44.0961 42.2308 44.3156 42.3263C44.5351 42.4218 44.7026 42.5378 44.8181 42.6742C44.9394 42.8107 45 42.963 45 43.1313V43.9909C45 44.1592 44.9394 44.3116 44.8181 44.448C44.7026 44.5845 44.5351 44.7004 44.3156 44.7959C44.0961 44.8915 43.8275 44.9665 43.5099 45.0211C43.198 45.0711 42.8457 45.0961 42.4529 45.0961H42.1064C41.8523 45.0961 41.6299 45.0961 41.4393 45.0961C41.2545 45.0961 41.0899 45.0961 40.9455 45.0961C40.8011 45.0916 40.6711 45.087 40.5556 45.0825C40.4401 45.0779 40.3275 45.0734 40.2178 45.0688V45.0825C40.3102 45.1098 40.4083 45.1393 40.5123 45.1712C40.622 45.1985 40.7549 45.2348 40.9108 45.2803C41.0668 45.3258 41.2545 45.3827 41.474 45.4509C41.6992 45.5191 41.9764 45.6055 42.3057 45.7101L44.3936 46.3719C44.5784 46.431 44.6708 46.5333 44.6708 46.6789C44.6708 46.8017 44.6188 46.8858 44.5149 46.9313C44.4167 46.9768 44.2723 46.9995 44.0817 46.9995C44.0412 46.9995 43.9893 46.9972 43.9257 46.9927C43.868 46.9927 43.8073 46.9881 43.7438 46.9791C43.6803 46.9745 43.6167 46.9677 43.5532 46.9586C43.4954 46.9449 43.4435 46.9267 43.3973 46.904L38.3291 45.178V46.6789C38.3291 46.8108 38.28 46.8972 38.1818 46.9381C38.0836 46.9791 37.9393 46.9995 37.7487 46.9995C37.5638 46.9995 37.4223 46.9791 37.3241 46.9381C37.226 46.8972 37.1769 46.8108 37.1769 46.6789V42.3399ZM38.3291 42.7629V44.373H42.349C42.6435 44.373 42.8861 44.3616 43.0767 44.3389C43.2731 44.3161 43.429 44.2866 43.5445 44.2502C43.66 44.2092 43.7409 44.1638 43.7871 44.1137C43.8333 44.0591 43.8564 44 43.8564 43.9363V43.1995C43.8564 43.1404 43.8333 43.0836 43.7871 43.029C43.7409 42.9744 43.66 42.9289 43.5445 42.8925C43.429 42.8516 43.2731 42.8198 43.0767 42.797C42.8861 42.7743 42.6435 42.7629 42.349 42.7629H38.3291Z" fill="white"/>
<path fill-rule="evenodd" clip-rule="evenodd" d="M29.2857 47H30.2941V45.2579H35.6723V47H36.6807V43.3431C36.6807 42.9112 36.5056 42.5644 36.1314 42.3307C35.7654 42.1021 35.2378 42 34.5798 42H31.3865C30.7286 42 30.2009 42.1021 29.835 42.3307C29.4608 42.5644 29.2857 42.9112 29.2857 43.3431V47ZM29.4706 46.7074V43.3431C29.4706 42.6559 29.9444 42.2646 30.892 42.1693C29.9444 42.2646 29.4706 42.6559 29.4706 43.3431V46.7074H29.4706ZM35.8572 46.7074V45.1116H30.1093V45.1117H35.8571V46.7074H35.8572ZM35.6723 43.3431V44.5665H30.2941V43.3431C30.2941 43.1101 30.3852 42.9582 30.5431 42.8595C30.7094 42.7556 30.9801 42.6915 31.3865 42.6915H34.5798C34.9863 42.6915 35.257 42.7556 35.4232 42.8595C35.5812 42.9582 35.6723 43.1101 35.6723 43.3431Z" fill="white"/>
<path d="M48.1187 46.2956H48.3127C48.4085 46.2956 48.4851 46.271 48.5425 46.2219C48.6012 46.1716 48.6305 46.1081 48.6305 46.0314C48.6305 45.9416 48.6048 45.8775 48.5533 45.8392C48.5018 45.7996 48.4204 45.7799 48.3091 45.7799H48.1187V46.2956ZM48.8981 46.0243C48.8981 46.1201 48.8724 46.2051 48.8209 46.2794C48.7706 46.3525 48.6994 46.407 48.6072 46.4429L49.0346 47.1527H48.7329L48.3612 46.5166H48.1187V47.1527H47.853V45.5517H48.3217C48.5204 45.5517 48.6658 45.5906 48.758 45.6685C48.8514 45.7463 48.8981 45.8649 48.8981 46.0243ZM47 46.3513C47 46.1117 47.0599 45.8871 47.1796 45.6774C47.2993 45.4678 47.4639 45.3025 47.6734 45.1815C47.8829 45.0605 48.1086 45 48.3504 45C48.5898 45 48.8143 45.0599 49.0238 45.1797C49.2333 45.2995 49.3985 45.4642 49.5194 45.6738C49.6403 45.8835 49.7008 46.1093 49.7008 46.3513C49.7008 46.5873 49.6427 46.8089 49.5266 47.0162C49.4105 47.2234 49.2477 47.3893 49.0382 47.5139C48.8287 47.6385 48.5994 47.7008 48.3504 47.7008C48.1026 47.7008 47.8739 47.6391 47.6644 47.5157C47.4549 47.3911 47.2915 47.2252 47.1742 47.018C47.0581 46.8107 47 46.5885 47 46.3513ZM47.1886 46.3513C47.1886 46.5585 47.2406 46.7526 47.3448 46.9335C47.4489 47.1132 47.5908 47.2551 47.7704 47.3594C47.9511 47.4624 48.1445 47.5139 48.3504 47.5139C48.5587 47.5139 48.752 47.4618 48.9304 47.3576C49.1088 47.2534 49.2501 47.1126 49.3542 46.9353C49.4596 46.7568 49.5122 46.5621 49.5122 46.3513C49.5122 46.1428 49.4602 45.9494 49.356 45.7709C49.2519 45.5924 49.1106 45.451 48.9322 45.3468C48.755 45.2414 48.5611 45.1887 48.3504 45.1887C48.1421 45.1887 47.9487 45.2408 47.7704 45.345C47.592 45.4492 47.4501 45.5906 47.3448 45.7691C47.2406 45.9464 47.1886 46.1405 47.1886 46.3513Z" fill="white"/>
<path fill-rule="evenodd" clip-rule="evenodd" d="M0 23.5C0 29.5347 2.27471 35.0382 6.01347 39.1997L12.7149 32.4983C10.409 30.0026 9 26.6658 9 23C9 16.658 13.217 11.3009 19 9.57976V36H28V9.91926C33.2627 11.9321 37 17.0296 37 23C37 26.0459 36.0273 28.8646 34.3756 31.1624L41.6462 38.433C44.9912 34.3731 47 29.1711 47 23.5C47 10.5213 36.4787 0 23.5 0C10.5213 0 0 10.5213 0 23.5Z" fill="#1860AC"/>
</svg>
